<svg xmlns="http://www.w3.org/2000/svg" xmlns:xlink="http://www.w3.org/1999/xlink" width="500" zoomAndPan="magnify" viewBox="0 0 375 374.999991" height="500" preserveAspectRatio="xMidYMid meet" version="1.0"><defs><g/><clipPath id="b12dc73b0c"><path d="M 36.414062 87.636719 L 71.839844 87.636719 L 71.839844 123.0625 L 36.414062 123.0625 Z M 36.414062 87.636719 " clip-rule="nonzero"/></clipPath><clipPath id="47389f0c6a"><path d="M 85.304688 87.636719 L 120.730469 87.636719 L 120.730469 123.0625 L 85.304688 123.0625 Z M 85.304688 87.636719 " clip-rule="nonzero"/></clipPath><clipPath id="894bdc7a0e"><path d="M 134.484375 87.636719 L 169.910156 87.636719 L 169.910156 123.0625 L 134.484375 123.0625 Z M 134.484375 87.636719 " clip-rule="nonzero"/></clipPath></defs><g fill="#081788" fill-opacity="1"><g transform="translate(27.856475, 236.570865)"><g><path d="M 2.9375 -10.453125 C 3.925781 -10.347656 4.910156 -10.296875 5.890625 -10.296875 C 6.867188 -10.296875 7.800781 -10.296875 8.6875 -10.296875 C 12.414062 -10.492188 15.359375 -11.644531 17.515625 -13.75 C 19.671875 -15.863281 20.75 -19.523438 20.75 -24.734375 L 20.75 -103.046875 L 32.09375 -103.046875 L 32.09375 -25.46875 C 32.09375 -20.65625 31.523438 -16.628906 30.390625 -13.390625 C 29.265625 -10.148438 27.71875 -7.523438 25.75 -5.515625 C 23.789062 -3.503906 21.460938 -2.082031 18.765625 -1.25 C 16.066406 -0.414062 13.195312 0.046875 10.15625 0.140625 C 8.78125 0.140625 7.550781 0.164062 6.46875 0.21875 C 5.394531 0.269531 4.21875 0.195312 2.9375 0 Z M 2.9375 -10.453125 "/></g></g></g><g fill="#081788" fill-opacity="1"><g transform="translate(65.39229, 236.570865)"><g><path d="M 17.515625 -20.75 L 13.546875 0 L 2.9375 0 L 22.671875 -103.046875 L 39.296875 -103.046875 L 59.03125 0 L 47.546875 0 L 43.578125 -20.75 Z M 18.984375 -30.625 L 41.953125 -30.625 L 30.328125 -90.09375 Z M 18.984375 -30.625 "/></g></g></g><g fill="#081788" fill-opacity="1"><g transform="translate(127.510377, 236.570865)"><g><path d="M 28.109375 -104.078125 C 36.066406 -104.078125 41.929688 -101.71875 45.703125 -97 C 49.484375 -92.289062 51.375 -86.015625 51.375 -78.171875 L 51.375 -68.890625 L 40.484375 -68.890625 L 40.484375 -78.75 C 40.484375 -83.457031 39.523438 -87.113281 37.609375 -89.71875 C 35.691406 -92.320312 32.625 -93.625 28.40625 -93.625 C 24.289062 -93.625 21.25 -92.320312 19.28125 -89.71875 C 17.320312 -87.113281 16.34375 -83.457031 16.34375 -78.75 L 16.34375 -24.28125 C 16.34375 -19.570312 17.320312 -15.914062 19.28125 -13.3125 C 21.25 -10.71875 24.289062 -9.421875 28.40625 -9.421875 C 32.625 -9.421875 35.691406 -10.71875 37.609375 -13.3125 C 39.523438 -15.914062 40.484375 -19.570312 40.484375 -24.28125 L 40.484375 -37.6875 L 51.375 -37.6875 L 51.375 -24.875 C 51.375 -17.019531 49.484375 -10.738281 45.703125 -6.03125 C 41.929688 -1.320312 36.066406 1.03125 28.109375 1.03125 C 20.265625 1.03125 14.453125 -1.320312 10.671875 -6.03125 C 6.890625 -10.738281 5 -17.019531 5 -24.875 L 5 -78.171875 C 5 -82.085938 5.460938 -85.640625 6.390625 -88.828125 C 7.328125 -92.023438 8.753906 -94.75 10.671875 -97 C 12.585938 -99.257812 14.992188 -101.003906 17.890625 -102.234375 C 20.785156 -103.460938 24.191406 -104.078125 28.109375 -104.078125 Z M 28.109375 -104.078125 "/></g></g></g><g fill="#52ac46" fill-opacity="1"><g transform="translate(183.446302, 236.570865)"><g><path d="M 27.53125 -104.078125 C 35.375 -104.078125 41.160156 -101.742188 44.890625 -97.078125 C 48.617188 -92.421875 50.484375 -86.164062 50.484375 -78.3125 L 50.484375 -75.515625 L 39.59375 -75.515625 L 39.59375 -78.90625 C 39.59375 -83.613281 38.660156 -87.242188 36.796875 -89.796875 C 34.929688 -92.347656 31.941406 -93.625 27.828125 -93.625 C 23.703125 -93.625 20.707031 -92.347656 18.84375 -89.796875 C 16.976562 -87.242188 16.046875 -83.660156 16.046875 -79.046875 C 16.046875 -75.222656 16.90625 -71.882812 18.625 -69.03125 C 20.34375 -66.1875 22.476562 -63.5625 25.03125 -61.15625 C 27.582031 -58.757812 30.351562 -56.40625 33.34375 -54.09375 C 36.332031 -51.789062 39.101562 -49.265625 41.65625 -46.515625 C 44.207031 -43.765625 46.34375 -40.644531 48.0625 -37.15625 C 49.78125 -33.675781 50.640625 -29.535156 50.640625 -24.734375 C 50.640625 -16.878906 48.75 -10.617188 44.96875 -5.953125 C 41.1875 -1.296875 35.320312 1.03125 27.375 1.03125 C 19.425781 1.03125 13.585938 -1.296875 9.859375 -5.953125 C 6.128906 -10.617188 4.265625 -16.878906 4.265625 -24.734375 L 4.265625 -30.625 L 15.015625 -30.625 L 15.015625 -24.140625 C 15.015625 -19.429688 15.992188 -15.800781 17.953125 -13.25 C 19.921875 -10.695312 22.960938 -9.421875 27.078125 -9.421875 C 31.203125 -9.421875 34.242188 -10.695312 36.203125 -13.25 C 38.171875 -15.800781 39.15625 -19.429688 39.15625 -24.140625 C 39.15625 -27.960938 38.296875 -31.269531 36.578125 -34.0625 C 34.859375 -36.863281 32.722656 -39.46875 30.171875 -41.875 C 27.617188 -44.28125 24.867188 -46.632812 21.921875 -48.9375 C 18.984375 -51.25 16.238281 -53.773438 13.6875 -56.515625 C 11.132812 -59.265625 9 -62.378906 7.28125 -65.859375 C 5.5625 -69.347656 4.703125 -73.5 4.703125 -78.3125 C 4.703125 -86.257812 6.566406 -92.539062 10.296875 -97.15625 C 14.023438 -101.769531 19.769531 -104.078125 27.53125 -104.078125 Z M 27.53125 -104.078125 "/></g></g></g><g fill="#52ac46" fill-opacity="1"><g transform="translate(238.204421, 236.570865)"><g><path d="M 42.546875 -57.40625 L 42.546875 -47.109375 L 17.375 -47.109375 L 17.375 -10.453125 L 48.28125 -10.453125 L 48.28125 0 L 5.890625 0 L 5.890625 -103.046875 L 48.28125 -103.046875 L 48.28125 -92.59375 L 17.375 -92.59375 L 17.375 -57.40625 Z M 42.546875 -57.40625 "/></g></g></g><g fill="#52ac46" fill-opacity="1"><g transform="translate(291.196155, 236.570865)"><g><path d="M 28.109375 -104.078125 C 36.066406 -104.078125 41.929688 -101.71875 45.703125 -97 C 49.484375 -92.289062 51.375 -86.015625 51.375 -78.171875 L 51.375 -68.890625 L 40.484375 -68.890625 L 40.484375 -78.75 C 40.484375 -83.457031 39.523438 -87.113281 37.609375 -89.71875 C 35.691406 -92.320312 32.625 -93.625 28.40625 -93.625 C 24.289062 -93.625 21.25 -92.320312 19.28125 -89.71875 C 17.320312 -87.113281 16.34375 -83.457031 16.34375 -78.75 L 16.34375 -24.28125 C 16.34375 -19.570312 17.320312 -15.914062 19.28125 -13.3125 C 21.25 -10.71875 24.289062 -9.421875 28.40625 -9.421875 C 32.625 -9.421875 35.691406 -10.71875 37.609375 -13.3125 C 39.523438 -15.914062 40.484375 -19.570312 40.484375 -24.28125 L 40.484375 -37.6875 L 51.375 -37.6875 L 51.375 -24.875 C 51.375 -17.019531 49.484375 -10.738281 45.703125 -6.03125 C 41.929688 -1.320312 36.066406 1.03125 28.109375 1.03125 C 20.265625 1.03125 14.453125 -1.320312 10.671875 -6.03125 C 6.890625 -10.738281 5 -17.019531 5 -24.875 L 5 -78.171875 C 5 -82.085938 5.460938 -85.640625 6.390625 -88.828125 C 7.328125 -92.023438 8.753906 -94.75 10.671875 -97 C 12.585938 -99.257812 14.992188 -101.003906 17.890625 -102.234375 C 20.785156 -103.460938 24.191406 -104.078125 28.109375 -104.078125 Z M 28.109375 -104.078125 "/></g></g></g><g clip-path="url(#b12dc73b0c)"><path fill="#52ac46" d="M 71.839844 105.351562 C 71.839844 105.929688 71.8125 106.507812 71.753906 107.085938 C 71.699219 107.664062 71.613281 108.238281 71.5 108.804688 C 71.386719 109.375 71.246094 109.9375 71.078125 110.492188 C 70.910156 111.046875 70.714844 111.59375 70.492188 112.128906 C 70.269531 112.664062 70.023438 113.1875 69.75 113.699219 C 69.476562 114.210938 69.175781 114.707031 68.855469 115.191406 C 68.53125 115.671875 68.1875 116.136719 67.820312 116.585938 C 67.453125 117.035156 67.0625 117.464844 66.652344 117.875 C 66.242188 118.285156 65.8125 118.675781 65.363281 119.042969 C 64.914062 119.410156 64.449219 119.753906 63.96875 120.078125 C 63.484375 120.398438 62.988281 120.699219 62.476562 120.972656 C 61.964844 121.246094 61.441406 121.492188 60.90625 121.714844 C 60.371094 121.9375 59.824219 122.132812 59.269531 122.300781 C 58.714844 122.46875 58.152344 122.609375 57.582031 122.722656 C 57.015625 122.835938 56.441406 122.921875 55.863281 122.976562 C 55.285156 123.035156 54.707031 123.0625 54.128906 123.0625 C 53.546875 123.0625 52.96875 123.035156 52.390625 122.976562 C 51.8125 122.921875 51.242188 122.835938 50.671875 122.722656 C 50.101562 122.609375 49.539062 122.46875 48.984375 122.300781 C 48.429688 122.132812 47.886719 121.9375 47.347656 121.714844 C 46.8125 121.492188 46.289062 121.246094 45.777344 120.972656 C 45.265625 120.699219 44.769531 120.398438 44.285156 120.078125 C 43.804688 119.753906 43.339844 119.410156 42.890625 119.042969 C 42.441406 118.675781 42.011719 118.285156 41.601562 117.875 C 41.191406 117.464844 40.804688 117.035156 40.433594 116.585938 C 40.066406 116.136719 39.722656 115.671875 39.398438 115.191406 C 39.078125 114.707031 38.78125 114.210938 38.507812 113.699219 C 38.234375 113.1875 37.984375 112.664062 37.761719 112.128906 C 37.542969 111.59375 37.347656 111.046875 37.175781 110.492188 C 37.007812 109.9375 36.867188 109.375 36.753906 108.804688 C 36.640625 108.238281 36.558594 107.664062 36.5 107.085938 C 36.441406 106.507812 36.414062 105.929688 36.414062 105.351562 C 36.414062 104.769531 36.441406 104.191406 36.5 103.613281 C 36.558594 103.035156 36.640625 102.464844 36.753906 101.894531 C 36.867188 101.324219 37.007812 100.761719 37.175781 100.207031 C 37.347656 99.652344 37.542969 99.109375 37.761719 98.570312 C 37.984375 98.035156 38.234375 97.511719 38.507812 97 C 38.78125 96.488281 39.078125 95.992188 39.398438 95.507812 C 39.722656 95.027344 40.066406 94.5625 40.433594 94.113281 C 40.804688 93.664062 41.191406 93.234375 41.601562 92.824219 C 42.011719 92.414062 42.441406 92.027344 42.890625 91.65625 C 43.339844 91.289062 43.804688 90.945312 44.285156 90.621094 C 44.769531 90.300781 45.265625 90.003906 45.777344 89.730469 C 46.289062 89.457031 46.8125 89.207031 47.347656 88.984375 C 47.886719 88.765625 48.429688 88.570312 48.984375 88.398438 C 49.539062 88.230469 50.101562 88.089844 50.671875 87.976562 C 51.242188 87.863281 51.8125 87.78125 52.390625 87.722656 C 52.96875 87.664062 53.546875 87.636719 54.128906 87.636719 C 54.707031 87.636719 55.285156 87.664062 55.863281 87.722656 C 56.441406 87.78125 57.015625 87.863281 57.582031 87.976562 C 58.152344 88.089844 58.714844 88.230469 59.269531 88.398438 C 59.824219 88.570312 60.371094 88.765625 60.90625 88.984375 C 61.441406 89.207031 61.964844 89.457031 62.476562 89.730469 C 62.988281 90.003906 63.484375 90.300781 63.96875 90.621094 C 64.449219 90.945312 64.914062 91.289062 65.363281 91.65625 C 65.8125 92.027344 66.242188 92.414062 66.652344 92.824219 C 67.0625 93.234375 67.453125 93.664062 67.820312 94.113281 C 68.1875 94.5625 68.53125 95.027344 68.855469 95.507812 C 69.175781 95.992188 69.476562 96.488281 69.75 97 C 70.023438 97.511719 70.269531 98.035156 70.492188 98.570312 C 70.714844 99.109375 70.910156 99.652344 71.078125 100.207031 C 71.246094 100.761719 71.386719 101.324219 71.5 101.894531 C 71.613281 102.464844 71.699219 103.035156 71.753906 103.613281 C 71.8125 104.191406 71.839844 104.769531 71.839844 105.351562 Z M 71.839844 105.351562 " fill-opacity="1" fill-rule="nonzero"/></g><g clip-path="url(#47389f0c6a)"><path fill="#081788" d="M 120.730469 105.351562 C 120.730469 105.929688 120.703125 106.507812 120.644531 107.085938 C 120.585938 107.664062 120.503906 108.238281 120.390625 108.804688 C 120.277344 109.375 120.136719 109.9375 119.96875 110.492188 C 119.796875 111.046875 119.601562 111.59375 119.382812 112.128906 C 119.160156 112.664062 118.910156 113.1875 118.636719 113.699219 C 118.363281 114.210938 118.066406 114.707031 117.746094 115.191406 C 117.421875 115.671875 117.078125 116.136719 116.710938 116.585938 C 116.339844 117.035156 115.953125 117.464844 115.542969 117.875 C 115.132812 118.285156 114.703125 118.675781 114.253906 119.042969 C 113.804688 119.410156 113.339844 119.753906 112.859375 120.078125 C 112.375 120.398438 111.878906 120.699219 111.367188 120.972656 C 110.855469 121.246094 110.332031 121.492188 109.796875 121.714844 C 109.257812 121.9375 108.714844 122.132812 108.160156 122.300781 C 107.605469 122.46875 107.042969 122.609375 106.472656 122.722656 C 105.902344 122.835938 105.332031 122.921875 104.753906 122.976562 C 104.175781 123.035156 103.597656 123.0625 103.015625 123.0625 C 102.4375 123.0625 101.859375 123.035156 101.28125 122.976562 C 100.703125 122.921875 100.128906 122.835938 99.5625 122.722656 C 98.992188 122.609375 98.429688 122.46875 97.875 122.300781 C 97.320312 122.132812 96.773438 121.9375 96.238281 121.714844 C 95.703125 121.492188 95.179688 121.246094 94.667969 120.972656 C 94.15625 120.699219 93.660156 120.398438 93.175781 120.078125 C 92.695312 119.753906 92.230469 119.410156 91.78125 119.042969 C 91.332031 118.675781 90.902344 118.285156 90.492188 117.875 C 90.082031 117.464844 89.691406 117.035156 89.324219 116.585938 C 88.957031 116.136719 88.613281 115.671875 88.289062 115.191406 C 87.96875 114.707031 87.667969 114.210938 87.394531 113.699219 C 87.121094 113.1875 86.875 112.664062 86.652344 112.128906 C 86.429688 111.59375 86.234375 111.046875 86.066406 110.492188 C 85.898438 109.9375 85.757812 109.375 85.644531 108.804688 C 85.53125 108.238281 85.445312 107.664062 85.390625 107.085938 C 85.332031 106.507812 85.304688 105.929688 85.304688 105.351562 C 85.304688 104.769531 85.332031 104.191406 85.390625 103.613281 C 85.445312 103.035156 85.53125 102.464844 85.644531 101.894531 C 85.757812 101.324219 85.898438 100.761719 86.066406 100.207031 C 86.234375 99.652344 86.429688 99.109375 86.652344 98.570312 C 86.875 98.035156 87.121094 97.511719 87.394531 97 C 87.667969 96.488281 87.96875 95.992188 88.289062 95.507812 C 88.613281 95.027344 88.957031 94.5625 89.324219 94.113281 C 89.691406 93.664062 90.082031 93.234375 90.492188 92.824219 C 90.902344 92.414062 91.332031 92.027344 91.78125 91.65625 C 92.230469 91.289062 92.695312 90.945312 93.175781 90.621094 C 93.660156 90.300781 94.15625 90.003906 94.667969 89.730469 C 95.179688 89.457031 95.703125 89.207031 96.238281 88.984375 C 96.773438 88.765625 97.320312 88.570312 97.875 88.398438 C 98.429688 88.230469 98.992188 88.089844 99.5625 87.976562 C 100.128906 87.863281 100.703125 87.78125 101.28125 87.722656 C 101.859375 87.664062 102.4375 87.636719 103.015625 87.636719 C 103.597656 87.636719 104.175781 87.664062 104.753906 87.722656 C 105.332031 87.78125 105.902344 87.863281 106.472656 87.976562 C 107.042969 88.089844 107.605469 88.230469 108.160156 88.398438 C 108.714844 88.570312 109.257812 88.765625 109.796875 88.984375 C 110.332031 89.207031 110.855469 89.457031 111.367188 89.730469 C 111.878906 90.003906 112.375 90.300781 112.859375 90.621094 C 113.339844 90.945312 113.804688 91.289062 114.253906 91.65625 C 114.703125 92.027344 115.132812 92.414062 115.542969 92.824219 C 115.953125 93.234375 116.339844 93.664062 116.710938 94.113281 C 117.078125 94.5625 117.421875 95.027344 117.746094 95.507812 C 118.066406 95.992188 118.363281 96.488281 118.636719 97 C 118.910156 97.511719 119.160156 98.035156 119.382812 98.570312 C 119.601562 99.109375 119.796875 99.652344 119.96875 100.207031 C 120.136719 100.761719 120.277344 101.324219 120.390625 101.894531 C 120.503906 102.464844 120.585938 103.035156 120.644531 103.613281 C 120.703125 104.191406 120.730469 104.769531 120.730469 105.351562 Z M 120.730469 105.351562 " fill-opacity="1" fill-rule="nonzero"/></g><g clip-path="url(#894bdc7a0e)"><path fill="#081788" d="M 169.910156 105.351562 C 169.910156 105.929688 169.882812 106.507812 169.824219 107.085938 C 169.765625 107.664062 169.683594 108.238281 169.570312 108.804688 C 169.457031 109.375 169.316406 109.9375 169.148438 110.492188 C 168.976562 111.046875 168.78125 111.59375 168.5625 112.128906 C 168.339844 112.664062 168.089844 113.1875 167.816406 113.699219 C 167.542969 114.210938 167.246094 114.707031 166.925781 115.191406 C 166.601562 115.671875 166.257812 116.136719 165.890625 116.585938 C 165.519531 117.035156 165.132812 117.464844 164.722656 117.875 C 164.3125 118.285156 163.882812 118.675781 163.433594 119.042969 C 162.984375 119.410156 162.519531 119.753906 162.039062 120.078125 C 161.554688 120.398438 161.058594 120.699219 160.546875 120.972656 C 160.035156 121.246094 159.511719 121.492188 158.976562 121.714844 C 158.4375 121.9375 157.894531 122.132812 157.339844 122.300781 C 156.785156 122.46875 156.222656 122.609375 155.652344 122.722656 C 155.082031 122.835938 154.511719 122.921875 153.933594 122.976562 C 153.355469 123.035156 152.777344 123.0625 152.195312 123.0625 C 151.617188 123.0625 151.039062 123.035156 150.460938 122.976562 C 149.882812 122.921875 149.308594 122.835938 148.742188 122.722656 C 148.171875 122.609375 147.609375 122.46875 147.054688 122.300781 C 146.5 122.132812 145.953125 121.9375 145.417969 121.714844 C 144.882812 121.492188 144.359375 121.246094 143.847656 120.972656 C 143.335938 120.699219 142.839844 120.398438 142.355469 120.078125 C 141.875 119.753906 141.410156 119.410156 140.960938 119.042969 C 140.511719 118.675781 140.082031 118.285156 139.671875 117.875 C 139.261719 117.464844 138.871094 117.035156 138.503906 116.585938 C 138.136719 116.136719 137.792969 115.671875 137.46875 115.191406 C 137.148438 114.707031 136.847656 114.210938 136.574219 113.699219 C 136.300781 113.1875 136.054688 112.664062 135.832031 112.128906 C 135.609375 111.59375 135.414062 111.046875 135.246094 110.492188 C 135.078125 109.9375 134.9375 109.375 134.824219 108.804688 C 134.710938 108.238281 134.625 107.664062 134.570312 107.085938 C 134.511719 106.507812 134.484375 105.929688 134.484375 105.351562 C 134.484375 104.769531 134.511719 104.191406 134.570312 103.613281 C 134.625 103.035156 134.710938 102.464844 134.824219 101.894531 C 134.9375 101.324219 135.078125 100.761719 135.246094 100.207031 C 135.414062 99.652344 135.609375 99.109375 135.832031 98.570312 C 136.054688 98.035156 136.300781 97.511719 136.574219 97 C 136.847656 96.488281 137.148438 95.992188 137.46875 95.507812 C 137.792969 95.027344 138.136719 94.5625 138.503906 94.113281 C 138.871094 93.664062 139.261719 93.234375 139.671875 92.824219 C 140.082031 92.414062 140.511719 92.027344 140.960938 91.65625 C 141.410156 91.289062 141.875 90.945312 142.355469 90.621094 C 142.839844 90.300781 143.335938 90.003906 143.847656 89.730469 C 144.359375 89.457031 144.882812 89.207031 145.417969 88.984375 C 145.953125 88.765625 146.5 88.570312 147.054688 88.398438 C 147.609375 88.230469 148.171875 88.089844 148.742188 87.976562 C 149.308594 87.863281 149.882812 87.78125 150.460938 87.722656 C 151.039062 87.664062 151.617188 87.636719 152.195312 87.636719 C 152.777344 87.636719 153.355469 87.664062 153.933594 87.722656 C 154.511719 87.78125 155.082031 87.863281 155.652344 87.976562 C 156.222656 88.089844 156.785156 88.230469 157.339844 88.398438 C 157.894531 88.570312 158.4375 88.765625 158.976562 88.984375 C 159.511719 89.207031 160.035156 89.457031 160.546875 89.730469 C 161.058594 90.003906 161.554688 90.300781 162.039062 90.621094 C 162.519531 90.945312 162.984375 91.289062 163.433594 91.65625 C 163.882812 92.027344 164.3125 92.414062 164.722656 92.824219 C 165.132812 93.234375 165.519531 93.664062 165.890625 94.113281 C 166.257812 94.5625 166.601562 95.027344 166.925781 95.507812 C 167.246094 95.992188 167.542969 96.488281 167.816406 97 C 168.089844 97.511719 168.339844 98.035156 168.5625 98.570312 C 168.78125 99.109375 168.976562 99.652344 169.148438 100.207031 C 169.316406 100.761719 169.457031 101.324219 169.570312 101.894531 C 169.683594 102.464844 169.765625 103.035156 169.824219 103.613281 C 169.882812 104.191406 169.910156 104.769531 169.910156 105.351562 Z M 169.910156 105.351562 " fill-opacity="1" fill-rule="nonzero"/></g></svg>